<?xml version="1.0" standalone="no"?>
<!DOCTYPE svg PUBLIC "-//W3C//DTD SVG 20010904//EN"
 "http://www.w3.org/TR/2001/REC-SVG-20010904/DTD/svg10.dtd">
<svg version="1.0" xmlns="http://www.w3.org/2000/svg"
 width="512.000000pt" height="512.000000pt" viewBox="0 0 512.000000 512.000000"
 preserveAspectRatio="xMidYMid meet">
<metadata>
Created by potrace 1.11, written by Peter Selinger 2001-2013
</metadata>
<g transform="translate(0.000000,512.000000) scale(0.100000,-0.100000)"
fill="#000000" stroke="none">
<path d="M608 5110 c-272 -47 -494 -245 -580 -520 l-23 -75 0 -1955 0 -1955
23 -75 c78 -249 253 -424 502 -502 l75 -23 1955 0 1955 0 75 23 c249 78 424
253 502 502 l23 75 0 1955 0 1955 -23 75 c-77 246 -247 418 -497 502 l-70 23
-1935 1 c-1064 1 -1956 -2 -1982 -6z m1512 -1110 l0 -560 1220 0 1220 0 0
-250 0 -250 -1220 0 -1220 0 0 -1190 0 -1190 -250 0 -250 0 0 1190 0 1190
-530 0 -530 0 0 250 0 250 530 0 530 0 0 560 0 560 250 0 250 0 0 -560z"/>
</g>
</svg>
